<svg width="166" height="53" viewBox="0 0 166 53" fill="none" xmlns="http://www.w3.org/2000/svg">
<g id="Clip path group">
<mask id="mask0_25_102" style="mask-type:luminance" maskUnits="userSpaceOnUse" x="0" y="0" width="166" height="53">
<g id="clippath">
<path id="Vector" d="M166 0.391113H0V52.6617H166V0.391113Z" fill="white"/>
</g>
</mask>
<g mask="url(#mask0_25_102)">
<g id="Group">
<path id="Vector_2" d="M15.3172 52.6617L0 45.3604V0.391113H18.7111C28.5579 0.391113 36.5738 8.40699 36.5738 18.2538C36.5738 28.1006 28.5579 36.1164 18.7111 36.1164H15.3061V52.6729L15.3172 52.6617ZM15.3172 20.788H18.7223C20.129 20.788 21.2677 19.6493 21.2677 18.2426C21.2677 16.8359 20.129 15.6972 18.7223 15.6972H15.3172V20.788Z" fill="#221C35"/>
<path id="Vector_3" d="M10.2153 43.9763L5.11328 41.5313V5.49341H18.7224C25.7558 5.49341 31.483 11.2095 31.483 18.2429C31.483 25.2763 25.7558 30.9924 18.7224 30.9924H10.2153V43.954V43.9763ZM10.2153 25.9015H18.7224C22.9425 25.9015 26.3699 22.4741 26.3699 18.2541C26.3699 14.034 22.9425 10.6066 18.7224 10.6066H10.2153V25.9015Z" fill="#F8D12A"/>
<path id="Vector_4" d="M18.7112 15.7085H15.3062V20.7994H18.7112C20.1179 20.7994 21.2567 19.6606 21.2567 18.2539C21.2567 16.8472 20.1179 15.7085 18.7112 15.7085Z" fill="#F8D12A"/>
<path id="Vector_5" d="M50.0377 11.9682H47.5593V17.3046H50.0377C52.0919 17.3046 54.3582 17.0367 54.3582 14.5917C54.3582 12.1468 51.8575 11.9682 50.0377 11.9682ZM50.6294 21.2902H47.5593V28.2009H42.4907V8.00488H49.6135C52.4715 8.00488 54.7713 8.0607 56.6469 9.4004C58.489 10.7066 59.2705 12.705 59.2705 14.5582C59.2705 19.504 55.2179 21.2902 50.6294 21.2902Z" fill="#221C35"/>
<path id="Vector_6" d="M69.709 22.0383H67.4985C66.2816 22.0383 64.8414 22.3397 64.8414 23.8246C64.8414 24.807 65.5894 25.4099 66.6835 25.4099C67.666 25.4099 68.3247 25.1419 68.8605 24.6954C69.4299 24.2153 69.6979 23.4673 69.6979 22.6077V22.0383H69.709ZM70.0663 28.2009L69.9435 26.7384C69.3183 27.4194 67.7999 28.5582 65.4108 28.5582C62.8207 28.5582 60.3423 27.1627 60.3423 24.0255C60.3423 22.7082 60.7889 21.7592 61.5034 21.0447C63.0775 19.4594 65.0759 19.1691 67.1078 19.1691H69.6979V18.7784C69.6979 17.26 68.5368 16.78 67.0743 16.78C64.9866 16.78 63.2896 18.1532 63.0217 18.3876L61.001 15.5854C61.2354 15.3733 63.2115 13.1963 67.3422 13.1963C69.7202 13.1963 71.3948 13.7322 72.5559 14.8932C74.1412 16.4786 74.2528 18.3765 74.2528 20.9107V28.1786H70.0551L70.0663 28.2009Z" fill="#221C35"/>
<path id="Vector_7" d="M85.685 28.8597C84.7919 31.1819 83.2066 34.1627 78.953 34.1627C77.1109 34.1627 76.028 33.571 75.6149 33.2137L77.0104 29.965C77.3677 30.1436 78.0264 30.3222 78.5288 30.3222C80.1364 30.3222 80.6165 29.4626 81.2082 28.0001L75.0679 13.7881H80.1364L83.5303 22.6971L86.8907 13.7881H91.7471L85.6627 28.8709L85.685 28.8597Z" fill="#221C35"/>
<path id="Vector_8" d="M101.359 11.9682H98.881V17.3046H101.359C103.414 17.3046 105.68 17.0367 105.68 14.5917C105.68 12.1468 103.179 11.9682 101.359 11.9682ZM101.951 21.2902H98.881V28.2009H93.8125V8.00488H100.935C103.793 8.00488 106.093 8.0607 107.969 9.4004C109.811 10.7066 110.592 12.705 110.592 14.5582C110.592 19.504 106.54 21.2902 101.951 21.2902Z" fill="#221C35"/>
<path id="Vector_9" d="M119.479 16.9699C117.19 16.9699 116.141 18.8455 116.141 20.9332C116.141 23.0209 117.246 24.9188 119.479 24.9188C121.712 24.9188 122.817 23.099 122.817 20.9332C122.817 18.7673 121.712 16.9699 119.479 16.9699ZM119.479 28.6811C113.607 28.6811 111.251 24.5392 111.251 20.9332C111.251 17.3272 113.607 13.2188 119.479 13.2188C125.351 13.2188 127.707 17.3272 127.707 20.9332C127.707 24.5392 125.351 28.6811 119.479 28.6811Z" fill="#221C35"/>
<path id="Vector_10" d="M129.482 13.7881H134.249V28.2122H129.482V13.7881ZM131.871 12.5377C130.319 12.5377 129.248 11.4324 129.248 10.0369C129.248 8.64139 130.319 7.53613 131.871 7.53613C133.423 7.53613 134.495 8.64139 134.495 10.0369C134.495 11.4324 133.423 12.5377 131.871 12.5377Z" fill="#221C35"/>
<path id="Vector_11" d="M146.128 28.2011V20.0066C146.128 19.0242 146.105 18.0976 145.324 17.5952C145 17.3607 144.487 17.1821 143.839 17.1821C143.191 17.1821 142.41 17.4165 141.896 17.9301C141.148 18.6781 141.148 19.895 141.148 21.0896V28.2123H136.381V13.7882H140.847L140.903 15.34C141.048 15.1949 142.689 13.23 145.636 13.23C147.155 13.23 148.405 13.6207 149.544 14.7483C150.738 15.9429 150.884 17.5505 150.884 19.1916V28.2235H146.117L146.128 28.2011Z" fill="#221C35"/>
<path id="Vector_12" d="M161.59 28.6476C157.326 28.6476 155.428 26.8613 155.428 23.0767V17.5392H152.391V13.7881H155.428V11.9125L160.195 9.22192V13.7881H165.174V17.5392H160.195V21.5583C160.195 23.1325 160.251 24.7178 162.729 24.7178C163.656 24.7178 164.605 24.3605 164.75 24.3047L166 27.6763C165.822 27.7991 164.214 28.6587 161.59 28.6587" fill="#221C35"/>
</g>
</g>
</g>
</svg>
