<?xml version="1.0" encoding="utf-8"?>
<!-- Generator: Adobe Illustrator 27.5.0, SVG Export Plug-In . SVG Version: 6.00 Build 0)  -->
<svg version="1.1" xmlns="http://www.w3.org/2000/svg" xmlns:xlink="http://www.w3.org/1999/xlink" x="0px" y="0px"
	 viewBox="0 0 841.89 841.89" style="enable-background:new 0 0 841.89 841.89;" xml:space="preserve">
<g id="BG">
	<rect x="0" style="fill:#008787;" width="841.891" height="841.889"/>
</g>
<g id="GRAPHICS">
	<g>
		<g>
			<g>
				<g style="opacity:0.2;">
					<path d="M647.345,501.663c10.667-6.172,10.677-21.563,0.018-27.762l-61.365-35.295c-14.758-8.575-33.101-8.594-47.879-0.048
						l-422.745,244.51c-10.668,6.173-10.688,21.571-0.029,27.762l61.355,35.294c14.749,8.575,33.102,8.596,47.88,0.048
						L647.345,501.663z"/>
				</g>
				<g style="opacity:0.2;">
					<path d="M581.824,608.335c5.279-3.054,5.284-10.671,0.009-13.739l-30.367-17.465c-7.303-4.244-16.38-4.252-23.693-0.023
						l-101.814,59.066c-5.279,3.055-5.289,10.675-0.015,13.738l30.362,17.465c7.298,4.244,16.38,4.254,23.693,0.023L581.824,608.335
						z"/>
				</g>
				<path style="fill:#D3801E;" d="M106.249,374.94l46.716-27.148l-0.028-24.022c-0.058-17.933,12.508-39.705,28.115-48.714
					l64.793-37.395c15.607-9.016,28.249-1.803,28.306,16.124l0.02,23.569l267.074-155.198l-1.058,244.648
					c-0.085,32.432,22.767,71.925,50.901,88.177c14.206,8.198,27.067,8.952,36.344,3.56L192.446,711.335
					c-9.286,5.396-22.148,4.629-36.343-3.567c-28.145-16.244-50.997-55.744-50.912-88.165L106.249,374.94z"/>
				<path style="fill:#FFC271;" d="M152.747,323.468L91.347,359.15l0,0l-0.008,0.009l0,0c-1.574,0.915-2.574,2.875-2.584,5.683
					l-1.059,244.652c-0.114,43.47,30.519,96.625,68.34,118.467c37.832,21.844,68.749,4.224,68.864-39.242l1.058-241.309
					l434.996-252.792c0.01-5.619-3.909-12.419-8.799-15.239c-2.404-1.394-4.606-1.516-6.197-0.597l-434.969,252.79
					c-0.019,0-0.019,0-0.028,0.002c-1.582,0.926-2.574,2.89-2.574,5.688l-1.059,241.311c-0.076,32.42-23.005,45.49-51.225,29.195
					c-28.145-16.244-50.997-55.744-50.912-88.165l1.059-244.663l46.726-27.148L152.747,323.468z M274.171,277.354l267.074-155.198
					c0.018-5.621-3.919-12.414-8.714-15.199c-2.412-1.391-4.604-1.515-6.197-0.585L274.133,252.928L274.171,277.354z
					 M94.122,358.593c-0.353-0.039-0.629,0.158-0.982,0.194C93.493,358.751,93.76,358.554,94.122,358.593z"/>
				<path style="fill:#F2AB44;" d="M224.899,688.719l1.058-241.309l434.996-252.792l-1.049,241.304
					c-0.057,21.59-7.723,36.807-20.059,43.967L204.85,732.696C217.186,725.521,224.843,710.303,224.899,688.719z"/>
				<path style="fill:#FFC271;" d="M150.306,276.676c9.314-10.664,4.719-6.74,78.13-49.133c7.855-4.527,14.958-4.962,20.088-1.973
					l17.399,10.107c-5.12-2.976-12.231-2.552-20.078,1.983c-68.969,39.802-66.004,37.682-70.885,41.722
					c-8.065,6.661-14.882,17.648-17.161,23.289c-5.787,13.084-4.854,37.846-4.834,45.246l-17.409-10.103
					C135.547,327.287,134.269,296.146,150.306,276.676z"/>
			</g>
			<g>
				<defs>
					<path id="SVGID_1_" d="M585.718,213.791c0,0-84.549-104.727-91.031-108.018L156.594,290.983L139.098,331.4
						c0,0-34.155,38.293-33.907,38.668c1.124,1.706,5.192,342.706,5.192,342.706s77.438,3.301,86.463-4.703
						c13.411-11.896,10.521-38.509,10.521-38.509l0.962-225.791c0.028-6.597,3.55-12.733,9.232-16.085L585.718,213.791z"/>
				</defs>
				<clipPath id="SVGID_00000125581501057229187220000003482798800753124755_">
					<use xlink:href="#SVGID_1_"  style="overflow:visible;"/>
				</clipPath>
				<g style="clip-path:url(#SVGID_00000125581501057229187220000003482798800753124755_);">
					<path style="fill:#B2B2B2;" d="M152.733,653.539L484.16,457.827c0.093,22.485,24.198,47.838,38.195,39.574
						c-110.473,65.237-220.948,130.477-331.424,195.714c-4.025,2.371-9.629,2.092-15.817-1.43
						C162.777,684.672,152.78,667.426,152.733,653.539z"/>
					<g style="enable-background:new    ;">
						<path style="fill:#D1D0CF;" d="M132.384,420.362l324.711-199.521l0.856,207.352c0.086,22.67,24.281,47.792,38.199,39.574
							c-110.483,65.237-220.952,130.484-331.435,195.715c-4.021,2.378-9.625,2.085-15.813-1.424
							c-12.283-6.983-15.602-20.271-15.662-34.337L132.384,420.362z"/>
						<g>
							<polygon style="fill:#F9F9F9;" points="132.384,420.362 457.095,220.841 450.375,217.005 125.66,416.541 							"/>
							<g style="enable-background:new    ;">
								<g>
									<polygon style="fill:#F9F9F9;" points="135.487,338.829 466.925,143.122 473.645,146.943 142.21,342.65 									"/>
								</g>
								<path style="fill:#A8A8A8;" d="M483.652,430.498c-4.801-2.732-8.716-9.404-8.739-14.897l-1.268-268.658L142.21,342.65
									l1.272,268.651c0.023,5.507,3.938,12.172,8.735,14.912c2.408,1.357,4.584,1.471,6.145,0.545
									c110.483-65.237,220.956-130.477,331.439-195.714C488.233,431.97,486.059,431.857,483.652,430.498z"/>
								<path style="fill:#D1D0CF;" d="M166.124,312.365l1.458,312.631c0.014,4.842-1.676,8.253-4.419,9.873
									C273.639,569.64,384.107,504.401,494.59,439.171c2.058-1.224,3.527-3.448,4.125-6.525c0.196-1.038,0.299-2.148,0.29-3.356
									l-1.451-312.639L166.124,312.365z"/>
								<g>
									<polygon style="fill:#F9F9F9;" points="159.404,308.545 490.835,112.838 497.555,116.65 166.124,312.365 									"/>
								</g>
								<path style="fill:#F9F9F9;" d="M166.124,312.365l1.458,312.631c0.034,9.722-6.836,13.728-15.33,8.892
									c-8.517-4.835-15.452-16.678-15.489-26.392l-1.276-268.667l6.724,3.821l1.272,268.651
									c0.023,5.507,3.938,12.172,8.735,14.912c4.79,2.7,8.66,0.453,8.642-5.031l-1.455-312.638L166.124,312.365z"/>
							</g>
						</g>
						<path style="fill:#DDDDDD;" d="M177.813,653.041l-1.334-323.685l331.427-195.714l1.343,323.691
							c0.037,9.08-3.137,15.507-8.306,18.551C390.46,541.131,279.987,606.362,169.508,671.6
							C174.677,668.549,177.853,662.129,177.813,653.041z"/>
						<polygon style="fill:#F9F9F9;" points="176.479,329.357 507.905,133.643 501.186,129.829 169.754,325.545 						"/>
						<path style="fill:#F9F9F9;" d="M169.754,325.545l1.343,323.684c0.053,14.058-9.905,19.8-22.195,12.828
							c-12.283-6.983-15.602-20.271-15.662-34.337l-0.856-207.358l-6.724-3.821l0.864,207.367
							c0.071,18.288,6.428,36.758,22.412,45.841c16.002,9.09,28.955,1.58,28.876-16.708l-1.334-323.685L169.754,325.545z"/>
					</g>
					<g style="enable-background:new    ;">
						<path style="fill:#DDDDDD;" d="M204.021,682.676l-1.339-323.685l289.261-170.604l-2.078-2.72l36.448,18.185
							c4.886,2.438,8.003,7.445,8.025,12.9l1.121,270.215c0.034,9.088-3.14,15.517-8.308,18.56
							c-110.48,65.237-220.952,130.469-331.432,195.707C200.888,698.183,204.063,691.764,204.021,682.676z"/>
						<g>
							<g>
								<polygon style="fill:#B9B9B9;" points="362.249,407.912 363.67,552.166 227.991,631.767 226.577,487.513 								"/>
							</g>
							<g style="enable-background:new    ;">
								<g>
									<polygon style="fill:#B9B9B9;" points="519.58,486.3 519.692,498.675 389.152,575.255 389.028,562.882 									"/>
								</g>
								<g>
									<polygon style="fill:#B9B9B9;" points="519.296,458.003 519.413,470.379 388.872,546.966 388.756,534.594 									"/>
								</g>
								<g>
									<polygon style="fill:#A3A3A3;" points="519.023,429.723 519.143,442.097 388.604,518.677 388.472,506.312 									"/>
								</g>
								<g>
									<polygon style="fill:#A3A3A3;" points="518.743,401.434 518.859,413.815 388.319,490.403 388.203,478.016 									"/>
								</g>
								<g>
									<polygon style="fill:#A3A3A3;" points="518.462,373.147 518.586,385.519 388.043,462.108 387.922,449.733 									"/>
								</g>
								<g>
									<polygon style="fill:#A3A3A3;" points="518.182,344.864 518.313,357.237 387.766,433.826 387.646,421.438 									"/>
								</g>
								<g>
									<polygon style="fill:#A3A3A3;" points="517.91,316.582 518.026,328.955 387.49,405.544 387.365,393.163 									"/>
								</g>
								<g>
									<path style="fill:#A3A3A3;" d="M510.924,294.136c1.689-0.995,3.08-0.219,3.101,1.73c0.013,1.972-1.341,4.345-3.034,5.325
										L314.854,416.25c-1.689,0.999-3.073,0.263-3.098-1.725c-0.013-1.941,1.345-4.337,3.026-5.323L510.924,294.136z"/>
								</g>
								<g>
									<path style="fill:#A3A3A3;" d="M458.791,255.258c2.006-1.182,3.659-0.261,3.684,2.056c0.016,2.341-1.592,5.162-3.604,6.325
										L225.866,400.324c-2.007,1.188-3.649,0.313-3.681-2.048c-0.016-2.308,1.598-5.152,3.595-6.324L458.791,255.258z"/>
								</g>
								<g>
									<path style="fill:#A3A3A3;" d="M509.557,264.679c2.438-1.435,4.446-0.315,4.476,2.498c0.02,2.845-1.935,6.272-4.378,7.686
										l-283.059,166.05c-2.438,1.441-4.434,0.377-4.471-2.489c-0.02-2.803,1.941-6.26,4.368-7.684L509.557,264.679z"/>
								</g>
							</g>
						</g>
						<path style="fill:#DBDBDB;" d="M526.313,203.852l-36.448-18.185l2.078,2.72l-3.326,1.957l5.687,12.849l14.374,41.357
							l25.589-28.764C533.9,210.705,530.907,206.14,526.313,203.852z"/>
						<path style="fill:#CECECE;" d="M526.313,203.852l-36.448-18.185l2.078,2.72l-3.326,1.957l5.687,12.849l14.374,41.357
							l25.589-28.764C533.9,210.705,530.907,206.14,526.313,203.852z"/>
						<g>
							<path style="fill:#F9F9F9;" d="M195.967,355.171l1.339,323.69c0.057,14.058-9.906,19.809-22.192,12.824
								c-6.617-3.747-12.579-10.443-16.685-18.029l-7.502-2.857c5.239,11.893,14.154,22.86,24.222,28.577
								c15.998,9.089,28.955,1.596,28.872-16.7l-1.339-323.685L195.967,355.171z"/>
						</g>
					</g>
					<path style="fill:#F9F9F9;" d="M508.679,244.55l-13.382-53.089c-0.684-2.723-2.75-4.921-5.431-5.794
						c-2.745-0.872-5.76-0.534-8.243,0.919L195.967,355.171l6.715,3.82l280.956-165.705c3.871-2.284,4.973,2.021,6.145,6.372
						l12.185,44.938L508.679,244.55z"/>
				</g>
			</g>
		</g>
		<g>
			<path style="fill:#2D373E;" d="M462.611,582.527l0.229,80.474c0.006,2.308,0.823,3.935,2.143,4.702
				c-12.125-7.049-24.25-14.094-36.372-21.139c-1.32-0.765-2.136-2.392-2.143-4.698l-0.229-80.474L462.611,582.527z"/>
			<path style="fill:#485864;" d="M543.531,487.728c-1.333-0.775-3.186-0.665-5.226,0.513l-104.736,60.468
				c-1.155,0.669-2.246,1.605-3.217,2.711c-1.149,1.308-2.127,2.854-2.843,4.47c-0.807,1.821-1.272,3.733-1.268,5.504l36.37,21.135
				c-0.003-1.77,0.462-3.68,1.269-5.503c0.716-1.616,1.694-3.163,2.843-4.47c0.971-1.106,2.062-2.043,3.217-2.708l104.736-60.467
				c2.039-1.183,3.892-1.292,5.225-0.517L543.531,487.728z"/>
			<path style="fill:#414F59;" d="M469.94,569.847c-4.06,2.344-7.345,8.018-7.33,12.681l0.229,80.474
				c0.013,4.649,3.318,6.532,7.378,4.19l104.733-60.469c4.06-2.343,7.329-8.022,7.316-12.675l-0.227-80.473
				c-0.013-4.663-3.305-6.542-7.364-4.194L469.94,569.847z"/>
			<path style="fill:#485864;" d="M527.724,552.619c-9.401,5.424-16.985,18.581-16.953,29.37c0.025,8.556,4.83,13.043,11.491,11.843
				l0.06,20.931l11.126-6.425l-0.057-20.93c6.649-6.486,11.411-16.496,11.386-25.053
				C544.745,551.567,537.11,547.197,527.724,552.619z"/>
			<rect x="524.746" y="587.408" style="fill:#2D373E;" width="8.645" height="20.93"/>
			<path style="fill:#20272B;" d="M510.771,581.989c-0.032-10.789,7.552-23.946,16.953-29.37c1.196-0.69,2.359-1.216,3.485-1.595
				c3.558,1.529,5.828,5.473,5.844,11.331c0.025,8.557-4.737,18.566-11.39,25.053l0.065,20.93h7.72l-11.126,6.425l-0.06-20.931
				C515.601,595.032,510.796,590.545,510.771,581.989z"/>
			<polygon style="fill:#2D373E;" points="525.728,608.338 533.447,608.338 522.322,614.763 522.306,610.153 			"/>
		</g>
		<g>
			<path style="opacity:0.21;" d="M640.462,717.477l-122.227-72.303l16.287-9.4l101.683,61.663
				c5.485,1.078,14.017,4.235,26.637,12.574c5.838,3.856,19.808,13.155,19.808,13.155c0.082,0.058,0.158,0.114,0.24,0.172
				c3.197-0.657,6.579-0.129,9.45,1.576l34.885,20.718c2.954,1.755,3.098,5.975,0.271,7.926l-8.354,5.767
				c-3.701,2.554-8.555,2.817-12.51,0.68l-40.352-21.813c-1.684-0.91-2.316-2.749-1.916-4.366
				c-10.41-2.57-18.996-7.516-22.14-10.659C639.215,720.156,639.347,718.512,640.462,717.477z"/>
			<path style="fill:#231F20;" d="M676.145,713.206c0,0,1.951-2.33,2.376-2.108c0.423,0.219,1.705,2.447,1.815,2.768
				c0.111,0.324,0.111,0.748-0.652,1.255C678.922,715.628,676.145,713.206,676.145,713.206z"/>
			<g>
				<path style="fill:#231F20;" d="M639.245,693.895c0,0,1.69,3.062-0.48,2.973c-1.335-0.051-5.53-1.126-5.53-1.126
					c-2.209-0.71-5.049-1.031-5.788,0.593c0,0-0.319,0.628-0.333,0.99c-0.035,1.256-0.345,0.158,1.163,1.893
					c0,0,2.91,2.839,4.786,4.03c2.353,1.495,3.642,1.706,4.461,1.724c0,0,1.661-0.114,2.658,0.139
					c1.105,0.281,0.637,1.663,0.493,2.771l3.276,1.866c3.396,1.382,6.541-1.313,6.648-2.164l1.135-8.893L639.245,693.895z"/>
				<g>
					<path style="fill:#231F20;" d="M638.992,704.625c-0.969-0.147-2.073-0.454-4.876-1.626c-2.338-0.983-5.579-3.922-5.579-3.922
						c-0.77-0.739-1.359-1.599-1.265-2.335c-0.087,0.271-0.141,0.551-0.172,0.706c-0.223,1.122,0.688,1.868,1.436,2.539
						c0,0,2.507,2.44,4.507,3.386c2.585,1.227,3.012,1.198,4.218,1.396c0,0,1.531,0.266,2.544,0.438
						c0.452,0.078,1.055,0.432,1.041,0.556C640.833,705.697,640.783,704.889,638.992,704.625z"/>
					<path style="fill:#231F20;" d="M644.075,708.759l-3.246-1.849c-0.05,0.362-0.123,0.744-0.171,1.102l3.275,1.863
						c3.398,1.377,6.542-1.314,6.651-2.171l0.14-1.115C650.617,707.441,647.472,710.137,644.075,708.759z"/>
				</g>
			</g>
			<path style="fill:#F2D9CC;" d="M677.954,628.66l2.674,7.505l-0.338,3.303l-0.628,4.051l1.248,3.957c0,0,0.42,1.553-3.241,2.526
				c-1.87,0.5-3.991-2.088-3.991-2.088c-0.91-0.758-1.806-3.202-1.858-4.555c-0.051-1.248,0.559-7.096,0.559-7.096
				C672.901,634.544,676.108,628.056,677.954,628.66z"/>
			<path style="fill:#FFE8D9;" d="M677.779,637.761c0,0,0.339,1.96-1.341,3.496c-1.685,1.534-1.796,2.307-1.796,2.307
				s-0.279,0.533,0.279,1.127c0.56,0.592,1.811,1.648,1.521,2.32c-0.292,0.671-0.691,1.194-1.613,0.572
				c-0.919-0.62-2.77-3.379-2.77-3.379s-0.509-2.158,0.104-3.953c0.923-2.692,2.293-3.283,2.293-3.283
				S677.18,636.063,677.779,637.761z"/>
			<path style="fill:#253133;" d="M677.042,640.743c3.201-0.315,3.924-2.442,3.924-2.442s0.609-0.148,0.531-2.335
				c-0.143-4.073-0.788-18.714-1.791-23.684c-1.101-5.455-6.532-19.824-6.532-19.824s-3.808-11.887-11.937-9.623
				c-4.908,1.369-0.667,7.882,0.307,12.237c0.761,3.424,4.843,14.997,6.079,20.1c1.445,5.955,4.088,24.17,4.088,24.17
				S673.833,641.063,677.042,640.743z"/>
			<path style="fill:#FFE1CC;" d="M647.667,555.732l-7.522,0.922l3.149,19.352c0.791,5.561,3.218,6.216,4.912,6.091
				c3.518-0.261,7.259-2.56,9.131-3.886c3.623-2.565,3.007-9.092,2.994-9.625l0.154-13.111L647.667,555.732z"/>
			<path style="fill:#FFE1CC;" d="M662.291,582.583l-2.107-12.114l-10.184,2.368l1.316,11.764c0,1.675-1.18,2.134-2.068,3.555
				L662.291,582.583z"/>
			<path style="fill:#253133;" d="M652.096,630.7c0,0-8.463,32.427-9.243,35.816c-1.713,7.418-5.643,33.099-5.643,33.099
				s-0.3,4.913,6.437,6.403c3.771,0.835,7.919-1.917,8.073-2.986c3.39-23.735,4.694-28.428,5.737-31.038
				c1.761-4.395,7.438-15.198,10.694-22.69c2.608-5.999,2.609-12.958,2.609-12.958L652.096,630.7z"/>
			<path style="fill:#231F20;" d="M677.074,711.598c0,0,3.009,1.949,4.55,7.066c0.635,2.109-0.203,3.499-0.203,3.499
				s-1.786,0.664-3.363,1.358c-0.302,0.135-0.683,0.825-0.937,1.067c-2.958,2.837-4.451,3.688-4.892,3.935
				c-2.266,1.271-5.176,1.582-6.943,1.271c-1.77-0.305-6.761-3.236-6.761-3.236s-0.591-2.372,1.325-3.299
				c1.915-0.926,5.305-0.462,5.305-0.462s4.218-3.951,5.692-5.491C672.322,715.761,677.074,711.598,677.074,711.598z"/>
			<path style="fill:#49595B;" d="M646.587,644.748c1.723,11.505,7.251,38.418,8.785,42.635c3.307,9.092,11.513,32.15,11.981,32.854
				c0.136,0.208,0.864,1.357,6.201-4.048c1.666-1.688,4.911-3.778,6.781-2.323c0,0-7.023-23.968-9.987-32.857
				c-4.546-13.637-4.752-42.458-4.752-42.458L646.587,644.748z"/>
			<path style="fill:#323F42;" d="M644.386,593.289c-2.248,2.322-5.036,9.496-4.618,17.644c0.826,16.118,3.926,35.126,3.926,35.126
				c0,1.417,1.859,3.923,6.199,4.957c2.248,0.535,4.697,1.492,9.917,0c7.232-2.066,12.19-7.967,12.19-10.95
				c0,0-0.815-9.582,0.622-36.572c1.032-19.422-9.543-21.703-9.543-21.703l-9.705,3.393L644.386,593.289z"/>
			<path style="fill:#383736;" d="M673.095,724.091c-0.161,0.153-3.194,3.911-3.85,4.434c-1.447,1.155-2.508,1.26-3.205,1.271
				c0.944,0.21,3.526,0.208,5.801-0.923c2.736-1.36,5.102-4.388,5.25-4.397c0.233-0.013-3.039,1.16-3.039,1.16L673.095,724.091z"/>
			<path style="fill:#4C4B4B;" d="M676.539,721.672c-1.168,1.547-2.124,3.065-2.265,3.641l7.073-3.15c0,0,0.351-0.493,0.47-1.127
				C682.268,718.633,677.849,719.938,676.539,721.672z"/>
			<g>
				<path style="fill:#F5F5F5;" d="M661.194,578.984c1.364-0.322,1.71-0.09,1.974,0.746c0.26,0.82,0.253,0.873,0.572,1.666
					c0.264,0.657-0.046,0.703-0.046,0.703s-6.846,1.885-11.937,5.355c-3.617,2.464-3.895,2.697-3.895,2.697l0.844-2.775
					c0.66-2.371,3.401-4.708,7.483-6.507C656.19,580.87,659.527,579.377,661.194,578.984z"/>
			</g>
			<path style="fill:#84460F;" d="M660.016,551.168c-0.188-0.35-0.531-0.885-1.034-1.202c-0.657-0.409-1.343-0.396-1.343-0.396
				s0.198,0.05,0.896,0.448c0.335,0.189,0.495,0.472,0.573,0.717c-2.226-0.947-5.034-1.287-8.483-0.768
				c-0.416,0.063-2.736,0.646-4.624,0.552c-0.114-0.009,0.755,0.263,0.645,0.843c-0.054,0.282-0.995,0.249-1.591,0.249
				c-0.456,0-2.488,0.399-2.936,1.24c-0.022,0.047,0.995,0.201,0.398,0.699c-0.909,0.756-1.841,1.541-2.735,2.836
				c-0.695,1.004-1.195,2.983-1.195,2.983c0.267,0.534,1.735-0.068,2.356,0.552c0.325,0.324,1.33,1.419,1.954,3.018
				c0.625,1.609,1.017,3.134,1.439,5.289l0.423,2.029c0.031,0.749,1.11-1.492,1.608-2.157c0.502-0.673,1.501-0.262,4.39,2.251
				c1.244,1.084,6.467,5.34,6.467,5.34c1.444,0.876,2.711,1.385,3.956-0.504c0.409-0.625,3.346-5.907,3.867-7.803
				C666.813,560.93,665.404,554.078,660.016,551.168z"/>
			<g>
				<path style="fill:#EFCFBD;" d="M646.435,567.854c0,0,1.596,0.19,2.194,1.999c0.42,1.28,0.007,2.378-0.235,2.704
					c-0.636,0.869-1.335,1.079-1.335,1.079s-0.09-3.103-0.143-3.673C646.864,569.396,646.435,567.854,646.435,567.854z"/>
				<path style="fill:#FFE8D9;" d="M645.661,567.207c0,0-0.913-0.014-0.221,1.263c0.69,1.276,0.874,2.057,0.925,2.788
					c0.045,0.671-0.043,2.685-0.043,2.685s0.599,0.808,1.107-0.436c0.244-0.591,0.374-1.709,0.291-3.138
					C647.685,569.791,646.634,566.879,645.661,567.207z"/>
			</g>
			<g>
				<g style="enable-background:new    ;">
					<g>
						<polygon style="fill:#B27200;" points="568.463,649.885 580.642,642.806 580.728,612.387 568.55,619.465 						"/>
					</g>
					<g>
						<polygon style="fill:#B27200;" points="594.508,652.646 606.686,645.568 606.738,627.402 594.559,634.479 						"/>
					</g>
					<g>
						<polygon style="fill:#FFBA0D;" points="672.589,661.176 684.767,654.1 544.837,573.311 532.658,580.388 						"/>
					</g>
					<path style="fill:#B27200;" d="M692.07,668.807l12.178-7.077c-2.838,1.648-4.599,5.153-4.613,10.128
						c-0.029,10.02,7.037,22.259,15.757,27.293c4.385,2.531,8.364,2.765,11.239,1.094l-12.178,7.079
						c-2.875,1.669-6.855,1.438-11.24-1.097c-8.72-5.034-15.786-17.272-15.758-27.293C687.47,673.96,689.232,670.457,692.07,668.807
						z"/>
					<g style="enable-background:new    ;">
						<g style="enable-background:new    ;">
							<path style="fill:#FFBA0D;" d="M725.742,726.746l12.179-7.079c5.704-3.313,9.247-10.354,9.275-20.351
								c0.056-20.12-14.14-44.715-31.648-54.824c-8.798-5.079-16.768-5.537-22.532-2.186l-12.179,7.077
								c5.764-3.35,13.734-2.892,22.532,2.188c17.509,10.108,31.706,34.703,31.648,54.823
								C734.989,716.39,731.447,723.432,725.742,726.746L725.742,726.746z"/>
						</g>
					</g>
					<g>
						<path style="fill:#E59E00;" d="M703.369,651.571c17.509,10.108,31.706,34.703,31.648,54.823
							c-0.057,20.118-14.346,28.267-31.855,18.158c-14.755-8.519-27.117-27.305-30.625-45.052l-77.978-45.021l-0.051,18.167
							l-15.948-9.207l0.052-18.165l-10.062-5.81l-0.087,30.42l-15.947-9.21l0.087-30.418l-19.997-11.545l0.052-18.324
							l139.931,80.788C676.185,647.533,688.613,643.051,703.369,651.571z M703.214,706.227c8.716,5.034,15.827,0.98,15.855-9.041
							c0.029-10.015-7.037-22.251-15.753-27.283c-8.721-5.035-15.833-0.983-15.861,9.031
							C687.428,688.955,694.494,701.192,703.214,706.227L703.214,706.227z"/>
					</g>
				</g>
			</g>
			<path style="fill:#FFE8D9;" d="M620.953,640.71l-3.265,4.575c0,0-2.499,4.407,0.34,6.568c1.438,1.093,2.855,1.649,2.855,1.649
				s0.93,0.334,1.603,0.03c0.377-0.173,0.631-1.011,0.455-1.59c-0.168-0.556,0.128-1.617,0.658-2.282
				c2.857-3.588,3.282-5.079,3.282-5.079L620.953,640.71z"/>
			<path style="fill:#49595B;" d="M622.901,645.37c3.265,2.582,5.227,1.032,5.227,1.032s11.833-11.04,16.256-18.734
				c2.774-4.823,7.063-17.606,7.063-17.606s4.25-12.993-1.095-15.967c-4.453-2.475-7.718,2.115-9.275,6.298
				c-2.087,5.602-4.356,15.643-6.888,20.94c-2.888,6.047-13.873,19.845-13.873,19.845S620.274,643.292,622.901,645.37z"/>
		</g>
		<g>
			<defs>
				<path id="SVGID_00000130616670485015845560000007832792193077709479_" d="M65.553,408.975l22.771-19.704v79.613
					c0,0,3.333,2.183,7.08,4.233c2.592,1.42,52.599,30.368,52.599,30.368l448.136-191.401l64.467-37.464l0.09-37.208l-52.588-36.633
					l-68.167,39.609l2.478-163.716l242.873,120.15l-348.33,453.708l-380.152,0.415L65.553,408.975z"/>
			</defs>
			<clipPath id="SVGID_00000035492413122223281670000002055935008702013882_">
				<use xlink:href="#SVGID_00000130616670485015845560000007832792193077709479_"  style="overflow:visible;"/>
			</clipPath>
			<g style="clip-path:url(#SVGID_00000035492413122223281670000002055935008702013882_);">
				<g style="enable-background:new    ;">
					<path style="fill:#575757;" d="M669.733,250.341l-100.96-58.289c-4.529-2.615-10.428-3.916-16.354-3.915
						c-5.919,0.003-11.796,1.3-16.304,3.92L90.142,451.229c-4.507,2.618-6.728,6.027-6.715,9.456l-0.19,66.823
						c-0.012-3.428,2.209-6.836,6.715-9.456l445.973-259.171c4.507-2.619,10.384-3.916,16.304-3.92
						c5.926,0,11.826,1.301,16.355,3.916l100.959,58.289c4.529,2.614,6.794,6.027,6.814,9.461l0.19-66.825
						C676.528,256.368,674.263,252.956,669.733,250.341z"/>
					<path style="fill:#7E7E7E;" d="M674.487,271.945L487.999,380.204c-4.506,2.619-6.727,6.027-6.708,9.46l-0.189,66.824
						c-0.019-3.433,2.201-6.841,6.708-9.459l186.487-108.259c5.768-3.353,8.644-7.757,8.619-12.148l0.19-66.825
						C683.131,264.19,680.256,268.594,674.487,271.945z"/>
					<path style="fill:#575757;" d="M483.482,401.805c-5.815-3.357-8.732-7.756-8.756-12.141l-0.189,66.824
						c0.024,4.386,2.941,8.784,8.756,12.141l52.172,30.121l0.189-66.824L483.482,401.805z"/>
					<g style="enable-background:new    ;">
						<g style="enable-background:new    ;">
							<path style="fill:#A3A3A3;" d="M541.238,430.593l-0.189,66.825c-0.001,0.482-0.318,0.964-0.953,1.332
								c-1.275,0.741-3.349,0.742-4.632,0l0.189-66.824c1.284,0.741,3.357,0.741,4.633,0
								C540.92,431.558,541.237,431.075,541.238,430.593"/>
						</g>
					</g>
					<g style="enable-background:new    ;">
						<g style="enable-background:new    ;">
							<path style="fill:#A3A3A3;" d="M525.321,439.962l-0.189,66.825c-0.002,0.484-0.321,0.968-0.956,1.337
								c-1.276,0.742-3.349,0.742-4.633,0l0.189-66.824c1.284,0.742,3.356,0.742,4.633,0
								C525.001,440.931,525.319,440.446,525.321,439.962"/>
						</g>
					</g>
					<g>
						<path style="fill:#8C8C8C;" d="M674.351,247.657c5.814,3.357,8.738,7.759,8.756,12.14c0.024,4.393-2.851,8.797-8.62,12.148
							L487.999,380.204c-4.506,2.619-6.727,6.027-6.708,9.46c0.013,3.429,2.278,6.843,6.808,9.457l52.171,30.122
							c1.285,0.74,1.291,1.941,0.016,2.683c-1.275,0.741-3.349,0.741-4.633,0l-52.172-30.121c-5.815-3.357-8.732-7.756-8.756-12.141
							c-0.024-4.391,2.852-8.795,8.619-12.146l185.913-107.925c5.082-2.954,7.302-6.363,7.291-9.791
							c-0.02-3.434-2.285-6.846-6.815-9.461l-100.96-58.289c-4.529-2.615-10.428-3.916-16.354-3.915
							c-5.919,0.003-11.796,1.3-16.304,3.92L90.142,451.229c-4.507,2.618-6.728,6.027-6.715,9.456
							c0.026,3.429,2.293,6.841,6.822,9.456l100.959,58.289c4.529,2.615,10.428,3.916,16.347,3.92
							c5.919-0.004,11.797-1.301,16.304-3.92l206.395-119.938c5.763-3.349,13.363-5.032,20.938-5.028
							c7.582,0,15.194,1.68,20.993,5.028l52.171,30.121c1.285,0.742,1.285,1.946,0.009,2.688c-1.276,0.742-3.349,0.742-4.633,0
							l-52.172-30.121c-4.529-2.615-10.428-3.917-16.34-3.917c-5.927,0-11.811,1.302-16.311,3.917L228.514,531.116
							c-7.28,3.671-14.116,5.033-20.937,5.029c-7.575,0.005-15.193-1.68-20.993-5.028l-100.96-58.289
							c-5.799-3.349-8.732-7.756-8.749-12.144c-0.032-4.389,2.844-8.791,8.613-12.145l445.973-259.171
							c5.768-3.353,13.362-5.032,20.945-5.032c7.575-0.005,15.194,1.68,20.986,5.031L674.351,247.657z"/>
					</g>
					<path style="fill:#7E7E7E;" d="M467.561,411.179c-4.529-2.615-10.428-3.917-16.34-3.917c-5.927,0-11.811,1.302-16.311,3.917
						L228.514,531.116c-7.28,3.671-14.116,5.033-20.937,5.029c-7.575,0.005-15.193-1.68-20.993-5.028l-100.96-58.289
						c-5.799-3.349-8.732-7.756-8.749-12.144l-0.19,66.825c0.017,4.387,2.951,8.794,8.75,12.143l100.96,58.289
						c5.799,3.349,13.418,5.033,20.993,5.028c6.822,0.003,13.657-1.358,20.938-5.028L434.72,478.003
						c4.5-2.615,10.384-3.916,16.311-3.916c5.913,0,11.811,1.301,16.341,3.916l52.171,30.121l0.189-66.824L467.561,411.179z"/>
				</g>
			</g>
		</g>
		<g>
			<defs>
				<path id="SVGID_00000002353249242781665360000016924654011582848667_" d="M541.02,497.591c-0.368,1.945-4.142,1.877-6.243,0.767
					c-1.775-0.939-1.833,7.676-1.833,7.676l8.076,23.891l41.247,0.026V404.417l-41.247-0.026V497.591z"/>
			</defs>
			<clipPath id="SVGID_00000067197905853004845530000006774051008749253776_">
				<use xlink:href="#SVGID_00000002353249242781665360000016924654011582848667_"  style="overflow:visible;"/>
			</clipPath>
			<g style="clip-path:url(#SVGID_00000067197905853004845530000006774051008749253776_);">
				<path style="fill:#909597;" d="M536.941,462.869c5.963,3.466,9.666,10.829,9.697,21.281l0.121,26.62l-11.641-6.766
					l-0.119-26.619c-0.029-10.452-3.733-17.815-9.698-21.28L536.941,462.869z"/>
				<g style="enable-background:new    ;">
					<path style="fill:#CFD3D6;" d="M455.964,520.403l0.047,0.028c0.407-10.719,3.576-22.015,7.881-31.74l0.003,0.003
						c4.47-10.114,10.602-19.77,17.779-27.946l-0.014-0.004c15.01-17.115,36.81-29.123,52.543-19.98l11.641,6.764
						c-8.336-4.844-20.035-4.456-32.582,3.163c-36.042,21.894-44.168,64.69-44.404,65.961c-0.055,0.304-0.106,0.606-0.164,0.91
						c-0.209,1.226-0.4,2.446-0.552,3.66c-0.009,0.062-0.016,0.124-0.025,0.187c-0.155,1.259-0.262-13.47-0.349-12.227
						c-0.022,0.304-0.038,0.603-0.055,0.904c-0.065,1.165-0.103,2.323-0.103,3.472l0.11,42.841l-11.638-6.761l-0.113-26.616
						l-0.006-0.004C455.964,520.043,455.979,525.736,455.964,520.403z"/>
				</g>
				<g>
					<path style="fill:#707273;" d="M513.263,450.69c-25.249,14.581-45.743,34.094-45.662,63.109l0.12,42.599l12.599-7.274
						l-0.116-26.62c-0.064-21.047,14.781-46.756,33.101-57.336c18.318-10.575,33.273-2.07,33.333,18.982l0.121,26.62l12.586-7.268
						l-0.12-26.621C559.141,447.867,538.528,436.107,513.263,450.69z"/>
				</g>
			</g>
		</g>
		<g>
			<path style="fill:#575757;" d="M493.902,443.561c8.893,5.135,16.076,17.576,16.047,27.785
				c-0.029,10.219-7.259,14.338-16.152,9.204c-8.884-5.129-16.067-17.57-16.038-27.79
				C477.788,442.553,485.019,438.431,493.902,443.561z"/>
		</g>
		<g>
			<defs>
				<path id="SVGID_00000101099325669989088140000005443114069444247685_" d="M510.11,569.099h-83.869V402.936h83.869
					l-12.324,43.412c0,0,4.316,3.473,7.733,9.641c3.418,6.169,4.591,12.939,4.591,12.939V569.099z"/>
			</defs>
			<clipPath id="SVGID_00000022531486458701971890000015507612483186736308_">
				<use xlink:href="#SVGID_00000101099325669989088140000005443114069444247685_"  style="overflow:visible;"/>
			</clipPath>
			<g style="clip-path:url(#SVGID_00000022531486458701971890000015507612483186736308_);">
				<path style="fill:#9FA3A5;" d="M536.919,462.855c5.964,3.466,9.666,10.828,9.698,21.279l0.12,26.622l-11.641-6.766l-0.12-26.619
					c-0.029-10.452-3.734-17.815-9.699-21.28L536.919,462.855z"/>
				<g style="enable-background:new    ;">
					<path style="fill:#CFD3D6;" d="M455.943,520.39l0.047,0.026c0.406-10.718,3.576-22.013,7.881-31.739l0.003,0.004
						c4.471-10.114,10.602-19.771,17.779-27.946l-0.013-0.005c15.01-17.114,36.81-29.122,52.542-19.98l11.641,6.765
						c-8.336-4.845-20.035-4.457-32.582,3.162c-36.042,21.895-44.168,64.69-44.403,65.962c-0.055,0.304-0.106,0.607-0.164,0.909
						c-0.21,1.227-0.4,2.447-0.552,3.659c-0.009,0.063-0.016,0.126-0.025,0.188c-0.155,1.258-0.397,34.991-0.397,34.991
						l-11.637-6.762l-0.113-26.617l-0.006-0.003C455.943,520.029,455.958,525.723,455.943,520.39z"/>
				</g>
				<g>
					<path style="fill:#707273;" d="M513.241,450.676c-25.25,14.581-45.743,42.973-45.662,71.987l0.12,33.723l12.599-7.275
						l-0.116-26.62c-0.065-21.047,14.781-46.758,33.101-57.337c18.318-10.574,33.273-2.069,33.334,18.981l0.12,26.622l12.586-7.27
						l-0.119-26.62C559.12,447.854,538.507,436.092,513.241,450.676z"/>
				</g>
			</g>
		</g>
	</g>
</g>
<g id="txt">
	<g>
		<g>
			<path style="fill:#00ABAB;" d="M313.584,45.708h4.376c-0.642,2.45-1.868,4.318-3.675,5.601c-1.809,1.343-4.084,2.013-6.826,2.013
				c-3.324,0-5.921-1.079-7.787-3.238c-1.868-2.1-2.801-5.104-2.801-9.013c0-3.732,0.904-6.65,2.713-8.751
				c1.866-2.157,4.463-3.237,7.788-3.237c3.501,0,6.212,1.05,8.138,3.149c1.051,1.285,1.809,2.772,2.275,4.463h-6.125
				c-0.293-0.582-0.584-1.02-0.875-1.313c-0.76-0.816-1.838-1.225-3.238-1.225c-1.283,0-2.334,0.409-3.15,1.225
				c-1.05,1.168-1.574,3.094-1.574,5.775c0,2.685,0.524,4.581,1.574,5.688c0.758,0.935,1.895,1.4,3.414,1.4
				c0.99,0,1.836-0.203,2.536-0.611c0.175-0.059,0.335-0.16,0.481-0.307c0.145-0.146,0.307-0.307,0.481-0.482
				c0.116-0.175,0.351-0.407,0.7-0.7C312.359,45.854,312.885,45.708,313.584,45.708z"/>
			<path style="fill:#00ABAB;" d="M319.937,52.884V41.595c0-2.274,0.335-4.185,1.006-5.73s1.59-2.785,2.757-3.719
				c1.107-0.875,2.406-1.517,3.895-1.926c1.486-0.408,3.02-0.613,4.594-0.613c0.116,0,0.262,0,0.438,0c0.175,0,0.32,0,0.438,0v6.213
				h-2.013c-1.692,0-2.946,0.41-3.763,1.226c-0.817,0.817-1.225,2.101-1.225,3.851v11.988H319.937z"/>
			<path style="fill:#00ABAB;" d="M350.877,45.708h4.375c-0.643,2.45-1.867,4.318-3.674,5.601c-1.81,1.343-4.085,2.013-6.826,2.013
				c-3.326,0-5.922-1.079-7.788-3.238c-1.868-2.1-2.8-5.104-2.8-9.013c0-3.732,0.904-6.65,2.713-8.751
				c1.865-2.157,4.462-3.237,7.787-3.237c3.5,0,6.213,1.05,8.139,3.149c1.865,2.16,2.8,5.164,2.8,9.014c0,0.234,0,0.438,0,0.612
				c0,0.175,0,0.293,0,0.351c0,0.293-0.03,0.496-0.087,0.612h-15.139c0.057,1.809,0.494,3.15,1.313,4.025
				c0.758,0.935,1.895,1.4,3.412,1.4c0.992,0,1.838-0.203,2.538-0.611c0.175-0.059,0.335-0.16,0.481-0.307
				c0.145-0.146,0.307-0.307,0.48-0.482c0.058-0.175,0.277-0.407,0.657-0.7C349.637,45.854,350.178,45.708,350.877,45.708z
				 M340.377,38.883h8.926c-0.117-1.575-0.525-2.741-1.226-3.501c-0.759-0.816-1.837-1.225-3.237-1.225
				c-1.285,0-2.334,0.409-3.15,1.225C340.871,36.2,340.434,37.366,340.377,38.883z"/>
			<path style="fill:#00ABAB;" d="M372.455,51.921c-1.227,0.643-2.524,1.035-3.895,1.182c-1.371,0.145-2.581,0.219-3.632,0.219
				c-2.1,0-3.938-0.568-5.513-1.707c-1.574-1.137-2.362-3.019-2.362-5.644c0-2.45,0.714-4.2,2.144-5.251
				c1.43-1.049,3.252-1.75,5.47-2.1c0.291,0,0.641-0.043,1.05-0.131c0.408-0.088,0.875-0.16,1.4-0.219
				c2.566-0.351,3.85-1.107,3.85-2.275c0-0.875-0.452-1.443-1.355-1.707c-0.905-0.262-1.736-0.394-2.494-0.394
				c-0.818,0-1.547,0.118-2.188,0.351c-0.642,0.233-1.108,0.672-1.399,1.313h-5.863c0.232-1.808,1.051-3.295,2.45-4.463
				c1.575-1.342,3.821-2.013,6.738-2.013c3.267,0,5.716,0.556,7.351,1.663c1.691,1.167,2.537,2.8,2.537,4.9v7.963
				c0,2.334-0.424,4.156-1.268,5.469C374.627,50.39,373.621,51.339,372.455,51.921z M371.055,41.157
				c-0.817,0.409-1.955,0.789-3.412,1.139l-2.014,0.438c-1.049,0.292-1.809,0.671-2.275,1.137c-0.408,0.642-0.611,1.284-0.611,1.926
				c0,0.875,0.262,1.574,0.787,2.1c0.524,0.468,1.283,0.7,2.275,0.7c1.632,0,2.916-0.466,3.85-1.399
				c0.933-0.934,1.4-2.217,1.4-3.851V41.157z"/>
			<path style="fill:#00ABAB;" d="M388.449,52.884c-1.924,0.116-4.012,0.088-6.256-0.088c-2.247-0.175-3.369-1.603-3.369-4.287
				V22.782h3.15c0.757,0,1.429,0.292,2.012,0.874c0.583,0.584,0.876,1.284,0.876,2.101v3.938h3.587v1.225
				c0,0.875-0.292,1.591-0.874,2.144c-0.584,0.555-1.284,0.831-2.101,0.831h-0.612v12.951c0,0.993,0.582,1.487,1.75,1.487h1.837
				V52.884z"/>
			<path style="fill:#00ABAB;" d="M390.007,22.782h3.149c0.817,0,1.518,0.292,2.102,0.874c0.582,0.584,0.875,1.284,0.875,2.101
				v1.838h-6.126V22.782z M390.007,29.607h3.149c0.817,0,1.518,0.293,2.102,0.876c0.582,0.584,0.875,1.283,0.875,2.1v20.302h-6.126
				V29.607z"/>
			<path style="fill:#00ABAB;" d="M411.76,52.884h-6.213l-8.139-23.277h6.476l4.638,16.364l4.113-14.263
				c0.466-1.4,1.4-2.101,2.8-2.101h4.55L411.76,52.884z"/>
			<path style="fill:#00ABAB;" d="M435.703,45.708h4.376c-0.643,2.45-1.869,4.318-3.676,5.601c-1.81,1.343-4.084,2.013-6.825,2.013
				c-3.326,0-5.922-1.079-7.789-3.238c-1.867-2.1-2.799-5.104-2.799-9.013c0-3.732,0.902-6.65,2.711-8.751
				c1.867-2.157,4.464-3.237,7.789-3.237c3.5,0,6.213,1.05,8.138,3.149c1.867,2.16,2.801,5.164,2.801,9.014c0,0.234,0,0.438,0,0.612
				c0,0.175,0,0.293,0,0.351c0,0.293-0.031,0.496-0.088,0.612h-15.139c0.058,1.809,0.495,3.15,1.313,4.025
				c0.757,0.935,1.895,1.4,3.413,1.4c0.99,0,1.838-0.203,2.537-0.611c0.176-0.059,0.336-0.16,0.481-0.307
				c0.146-0.146,0.307-0.307,0.482-0.482c0.058-0.175,0.275-0.407,0.656-0.7C434.463,45.854,435.003,45.708,435.703,45.708z
				 M425.202,38.883h8.926c-0.118-1.575-0.524-2.741-1.225-3.501c-0.759-0.816-1.838-1.225-3.239-1.225
				c-1.283,0-2.333,0.409-3.149,1.225C425.697,36.2,425.26,37.366,425.202,38.883z"/>
			<path style="fill:#00ABAB;" d="M457.911,58.483c0,0.816-0.293,1.517-0.875,2.101c-0.584,0.583-1.284,0.875-2.1,0.875h-2.975
				V39.671c0-4.084,1.193-6.869,3.586-8.357c2.393-1.488,4.988-2.231,7.789-2.231c1.457,0,2.932,0.278,4.419,0.831
				c1.487,0.555,2.669,1.357,3.544,2.406c1.75,2.275,2.625,5.193,2.625,8.751c0,3.675-0.875,6.65-2.625,8.925
				c-1.75,2.219-3.996,3.326-6.738,3.326c-1.459,0-2.742-0.263-3.85-0.787c-1.168-0.583-2.102-1.488-2.801-2.713V58.483z
				 M467.888,41.333c0-2.275-0.438-4.025-1.313-5.25c-0.875-1.226-2.131-1.838-3.764-1.838c-1.575,0-2.8,0.612-3.675,1.838
				c-0.817,1.108-1.226,2.858-1.226,5.25c0,2.218,0.438,3.881,1.313,4.988c0.875,1.225,2.129,1.837,3.764,1.837
				c1.516,0,2.713-0.612,3.588-1.837C467.45,45.095,467.888,43.433,467.888,41.333z"/>
			<path style="fill:#00ABAB;" d="M491.671,45.708h4.374c-0.642,2.45-1.866,4.318-3.675,5.601c-1.809,1.343-4.084,2.013-6.824,2.013
				c-3.326,0-5.923-1.079-7.789-3.238c-1.868-2.1-2.8-5.104-2.8-9.013c0-3.732,0.903-6.65,2.712-8.751
				c1.866-2.157,4.463-3.237,7.789-3.237c3.5,0,6.213,1.05,8.138,3.149c1.866,2.16,2.8,5.164,2.8,9.014c0,0.234,0,0.438,0,0.612
				c0,0.175,0,0.293,0,0.351c0,0.293-0.03,0.496-0.088,0.612h-15.139c0.059,1.809,0.496,3.15,1.313,4.025
				c0.758,0.935,1.896,1.4,3.414,1.4c0.99,0,1.837-0.203,2.537-0.611c0.176-0.059,0.335-0.16,0.48-0.307
				c0.146-0.146,0.307-0.307,0.482-0.482c0.057-0.175,0.275-0.407,0.656-0.7C490.431,45.854,490.97,45.708,491.671,45.708z
				 M481.169,38.883h8.926c-0.117-1.575-0.525-2.741-1.225-3.501c-0.759-0.816-1.838-1.225-3.238-1.225
				c-1.283,0-2.333,0.409-3.15,1.225C481.665,36.2,481.228,37.366,481.169,38.883z"/>
			<path style="fill:#00ABAB;" d="M500.753,50.783c-1.225-1.05-2.1-2.464-2.625-4.243c-0.525-1.779-0.787-3.632-0.787-5.557
				c0-1.576,0.218-3.15,0.656-4.726c0.436-1.574,1.122-2.887,2.056-3.938c1.517-1.75,3.47-2.785,5.862-3.106
				c2.392-0.32,4.551-0.132,6.477,0.568c2.216,0.875,3.85,2.392,4.9,4.551c0.99,1.924,1.486,4.171,1.486,6.737
				c0,1.868-0.205,3.472-0.611,4.813c-0.409,1.342-0.935,2.479-1.576,3.412c-1.4,1.925-3.18,3.121-5.338,3.588
				c-1.924,0.525-3.865,0.568-5.818,0.131C503.479,52.577,501.919,51.833,500.753,50.783z M504.953,35.382
				c-1.226,1.344-1.78,3.341-1.663,5.994c0.117,2.656,0.612,4.508,1.488,5.557c0.35,0.469,0.962,0.861,1.838,1.182
				c0.875,0.321,1.764,0.35,2.668,0.088c0.904-0.262,1.707-0.919,2.406-1.969c0.701-1.051,1.079-2.742,1.138-5.076
				c0-2.1-0.336-3.675-1.006-4.725c-0.671-1.051-1.444-1.721-2.319-2.013c-0.875-0.291-1.75-0.306-2.625-0.044
				C506.003,34.639,505.36,34.976,504.953,35.382z"/>
			<path style="fill:#00ABAB;" d="M526.198,58.483c0,0.816-0.292,1.517-0.874,2.101c-0.584,0.583-1.284,0.875-2.101,0.875h-2.975
				V39.671c0-4.084,1.194-6.869,3.587-8.357c2.392-1.488,4.987-2.231,7.788-2.231c1.457,0,2.932,0.278,4.419,0.831
				c1.487,0.555,2.669,1.357,3.544,2.406c1.75,2.275,2.625,5.193,2.625,8.751c0,3.675-0.875,6.65-2.625,8.925
				c-1.75,2.219-3.996,3.326-6.738,3.326c-1.459,0-2.742-0.263-3.85-0.787c-1.168-0.583-2.101-1.488-2.801-2.713V58.483z
				 M536.175,41.333c0-2.275-0.438-4.025-1.313-5.25c-0.875-1.226-2.131-1.838-3.764-1.838c-1.575,0-2.8,0.612-3.675,1.838
				c-0.817,1.108-1.226,2.858-1.226,5.25c0,2.218,0.438,3.881,1.313,4.988c0.875,1.225,2.129,1.837,3.763,1.837
				c1.516,0,2.713-0.612,3.588-1.837C535.737,45.095,536.175,43.433,536.175,41.333z"/>
			<path style="fill:#00ABAB;" d="M543.524,22.782h3.15c0.816,0,1.517,0.277,2.101,0.831c0.583,0.556,0.874,1.239,0.874,2.056
				v27.215h-6.125V22.782z"/>
			<path style="fill:#00ABAB;" d="M567.902,45.708h4.375c-0.642,2.45-1.867,4.318-3.675,5.601c-1.809,1.343-4.084,2.013-6.825,2.013
				c-3.325,0-5.922-1.079-7.788-3.238c-1.868-2.1-2.8-5.104-2.8-9.013c0-3.732,0.903-6.65,2.712-8.751
				c1.866-2.157,4.463-3.237,7.789-3.237c3.499,0,6.212,1.05,8.138,3.149c1.866,2.16,2.8,5.164,2.8,9.014c0,0.234,0,0.438,0,0.612
				c0,0.175,0,0.293,0,0.351c0,0.293-0.03,0.496-0.088,0.612h-15.139c0.059,1.809,0.495,3.15,1.313,4.025
				c0.758,0.935,1.895,1.4,3.413,1.4c0.991,0,1.838-0.203,2.538-0.611c0.175-0.059,0.335-0.16,0.48-0.307
				c0.146-0.146,0.307-0.307,0.482-0.482c0.057-0.175,0.275-0.407,0.656-0.7C566.663,45.854,567.202,45.708,567.902,45.708z
				 M557.401,38.883h8.926c-0.117-1.575-0.525-2.741-1.225-3.501c-0.759-0.816-1.838-1.225-3.238-1.225
				c-1.283,0-2.334,0.409-3.15,1.225C557.896,36.2,557.46,37.366,557.401,38.883z"/>
		</g>
		<g>
			<path style="fill:#00ABAB;" d="M303.287,78.05c0.867,0,1.631-0.246,2.293-0.739c0.662-0.493,0.994-1.178,0.994-2.056h1.157
				l0.021,0.066c0.036,1.092-0.4,2.005-1.311,2.74c-0.91,0.734-1.961,1.102-3.155,1.102c-1.607,0-2.85-0.551-3.727-1.654
				c-0.879-1.101-1.316-2.519-1.316-4.251V72.8c0-1.718,0.44-3.13,1.321-4.236c0.88-1.105,2.118-1.66,3.712-1.66
				c1.295,0,2.373,0.383,3.236,1.147c0.862,0.764,1.279,1.769,1.25,3.013l-0.022,0.065h-1.168c0-0.946-0.319-1.701-0.956-2.265
				c-0.636-0.565-1.417-0.847-2.341-0.847c-1.268,0-2.204,0.453-2.811,1.358c-0.608,0.904-0.911,2.044-0.911,3.418v0.458
				c0,1.396,0.301,2.544,0.905,3.446C301.065,77.6,302.007,78.05,303.287,78.05z"/>
			<path style="fill:#00ABAB;" d="M329.883,72.854c0-1.739,0.477-3.165,1.43-4.278c0.953-1.114,2.217-1.672,3.789-1.672
				c1.578,0,2.845,0.558,3.799,1.672c0.953,1.113,1.43,2.539,1.43,4.278v0.36c0,1.747-0.476,3.175-1.426,4.285
				c-0.949,1.109-2.209,1.664-3.781,1.664c-1.588,0-2.857-0.555-3.811-1.664c-0.953-1.11-1.43-2.538-1.43-4.285V72.854z
				 M331.192,73.208c0,1.367,0.347,2.516,1.038,3.446c0.69,0.931,1.654,1.396,2.893,1.396c1.215,0,2.17-0.465,2.865-1.396
				c0.695-0.931,1.043-2.079,1.043-3.446v-0.359c0-1.346-0.35-2.486-1.049-3.424c-0.698-0.938-1.659-1.407-2.881-1.407
				c-1.224,0-2.181,0.469-2.871,1.407c-0.691,0.938-1.038,2.078-1.038,3.424V73.208z"/>
			<path style="fill:#00ABAB;" d="M364.644,78.935h-1.3v-17.03h1.3V78.935z"/>
			<path style="fill:#00ABAB;" d="M389.842,78.935h-1.3v-17.03h1.3V78.935z"/>
			<path style="fill:#00ABAB;" d="M418.009,79.163c-1.478,0-2.706-0.545-3.684-1.637c-0.98-1.092-1.469-2.475-1.469-4.148v-0.601
				c0-1.688,0.486-3.089,1.457-4.202c0.973-1.114,2.148-1.672,3.531-1.672c1.449,0,2.588,0.459,3.418,1.377
				c0.829,0.916,1.244,2.139,1.244,3.668v1.113h-8.34v0.315c0,1.329,0.352,2.44,1.058,3.333c0.706,0.894,1.634,1.34,2.785,1.34
				c0.815,0,1.51-0.112,2.085-0.338c0.574-0.226,1.065-0.55,1.473-0.973l0.557,0.896c-0.443,0.467-1.006,0.839-1.686,1.114
				C419.756,79.026,418.947,79.163,418.009,79.163z M417.844,68.018c-0.968,0-1.779,0.368-2.434,1.104
				c-0.655,0.737-1.037,1.661-1.146,2.771l0.021,0.055h6.922V71.62c0-1.022-0.303-1.879-0.906-2.568
				C419.697,68.362,418.877,68.018,417.844,68.018z"/>
			<path style="fill:#00ABAB;" d="M449.593,78.05c0.865,0,1.629-0.246,2.291-0.739c0.662-0.493,0.994-1.178,0.994-2.056h1.157
				l0.023,0.066c0.035,1.092-0.401,2.005-1.311,2.74c-0.91,0.734-1.962,1.102-3.154,1.102c-1.609,0-2.853-0.551-3.729-1.654
				c-0.878-1.101-1.316-2.519-1.316-4.251V72.8c0-1.718,0.441-3.13,1.322-4.236c0.879-1.105,2.117-1.66,3.711-1.66
				c1.295,0,2.375,0.383,3.236,1.147c0.862,0.764,1.279,1.769,1.25,3.013l-0.022,0.065h-1.168c0-0.946-0.318-1.701-0.955-2.265
				c-0.637-0.565-1.418-0.847-2.342-0.847c-1.266,0-2.204,0.453-2.811,1.358c-0.608,0.904-0.911,2.044-0.911,3.418v0.458
				c0,1.396,0.301,2.544,0.906,3.446C447.368,77.6,448.311,78.05,449.593,78.05z"/>
			<path style="fill:#00ABAB;" d="M478.971,64.099v3.023h2.599v1.07h-2.599v7.696c0,0.771,0.14,1.319,0.421,1.644
				c0.279,0.323,0.652,0.485,1.117,0.485c0.213,0,0.418-0.009,0.617-0.028c0.201-0.018,0.432-0.048,0.693-0.092l0.197,0.971
				c-0.219,0.096-0.484,0.168-0.797,0.219c-0.313,0.051-0.626,0.076-0.939,0.076c-0.829,0-1.476-0.262-1.938-0.785
				c-0.462-0.524-0.693-1.354-0.693-2.489v-7.696h-2.041v-1.07h2.041v-3.023H478.971z"/>
			<path style="fill:#00ABAB;" d="M505.927,63.739h-1.3v-1.835h1.3V63.739z M505.927,78.935h-1.3V67.122h1.3V78.935z"/>
			<path style="fill:#00ABAB;" d="M528.929,72.854c0-1.739,0.478-3.165,1.43-4.278c0.955-1.114,2.217-1.672,3.789-1.672
				c1.579,0,2.846,0.558,3.799,1.672c0.953,1.113,1.43,2.539,1.43,4.278v0.36c0,1.747-0.475,3.175-1.425,4.285
				c-0.948,1.109-2.21,1.664-3.782,1.664c-1.587,0-2.856-0.555-3.811-1.664c-0.952-1.11-1.43-2.538-1.43-4.285V72.854z
				 M530.239,73.208c0,1.367,0.346,2.516,1.037,3.446c0.691,0.931,1.655,1.396,2.893,1.396c1.215,0,2.171-0.465,2.865-1.396
				c0.695-0.931,1.043-2.079,1.043-3.446v-0.359c0-1.346-0.349-2.486-1.048-3.424c-0.698-0.938-1.659-1.407-2.882-1.407
				c-1.223,0-2.18,0.469-2.871,1.407c-0.691,0.938-1.037,2.078-1.037,3.424V73.208z"/>
			<path style="fill:#00ABAB;" d="M563.384,67.122l0.121,2.063c0.378-0.728,0.889-1.29,1.533-1.687
				c0.645-0.396,1.406-0.596,2.287-0.596c1.281,0,2.256,0.393,2.926,1.175c0.67,0.782,1.004,2.003,1.004,3.662v7.194h-1.31v-7.197
				c0-1.357-0.252-2.315-0.758-2.877c-0.506-0.563-1.225-0.843-2.156-0.843c-0.917,0-1.664,0.243-2.243,0.728
				c-0.579,0.485-0.995,1.129-1.251,1.931v8.259h-1.309V67.122H563.384z"/>
		</g>
	</g>
	<g>
		<path style="fill:#FFFFFF;" d="M275.603,792.666v18.477c0,3.281-0.951,5.848-2.852,7.695c-1.901,1.85-4.551,2.773-7.949,2.773
			c-3.308,0-5.889-0.928-7.744-2.783c-1.855-1.855-2.783-4.443-2.783-7.764v-18.398h2.012v18.477c0,2.748,0.762,4.887,2.285,6.416
			c1.523,1.531,3.678,2.295,6.465,2.295c2.721,0,4.83-0.752,6.328-2.256c1.497-1.504,2.246-3.59,2.246-6.26v-18.672H275.603z"/>
		<path style="fill:#FFFFFF;" d="M297.693,821.221v-13.77c0-2.135-0.449-3.688-1.348-4.658c-0.898-0.969-2.292-1.455-4.18-1.455
			c-2.539,0-4.398,0.643-5.576,1.924c-1.179,1.283-1.768,3.363-1.768,6.24v11.719h-1.934v-21.23h1.641l0.371,2.91h0.117
			c1.38-2.213,3.835-3.32,7.363-3.32c4.817,0,7.227,2.586,7.227,7.754v13.887H297.693z"/>
		<path style="fill:#FFFFFF;" d="M308.416,821.221h-1.934V790.83h1.934V821.221z"/>
		<path style="fill:#FFFFFF;" d="M333.083,810.576c0,3.465-0.84,6.17-2.52,8.115c-1.68,1.947-3.998,2.92-6.953,2.92
			c-1.862,0-3.503-0.449-4.922-1.348c-1.419-0.898-2.507-2.188-3.262-3.867c-0.755-1.68-1.133-3.619-1.133-5.82
			c0-3.463,0.84-6.162,2.52-8.096c1.68-1.934,3.984-2.9,6.914-2.9c2.917,0,5.205,0.981,6.865,2.94
			C332.254,804.481,333.083,807.166,333.083,810.576z M316.326,810.576c0,2.918,0.641,5.193,1.924,6.826
			c1.282,1.635,3.096,2.451,5.439,2.451c2.344,0,4.157-0.816,5.44-2.451c1.282-1.633,1.924-3.908,1.924-6.826
			c0-2.93-0.648-5.201-1.943-6.816c-1.296-1.613-3.115-2.422-5.459-2.422c-2.344,0-4.15,0.805-5.42,2.412
			C316.961,805.359,316.326,807.635,316.326,810.576z"/>
		<path style="fill:#FFFFFF;" d="M347.439,821.611c-3.034,0-5.41-0.957-7.129-2.871c-1.719-1.914-2.578-4.582-2.578-8.008
			c0-3.516,0.892-6.252,2.676-8.213c1.784-1.959,4.225-2.94,7.324-2.94c1.836,0,3.594,0.32,5.273,0.957l-0.527,1.719
			c-1.836-0.611-3.431-0.918-4.785-0.918c-2.604,0-4.577,0.805-5.918,2.412c-1.341,1.609-2.012,3.924-2.012,6.943
			c0,2.865,0.67,5.107,2.012,6.728c1.341,1.621,3.216,2.432,5.625,2.432c1.927,0,3.717-0.344,5.371-1.035v1.797
			C351.417,821.279,349.639,821.611,347.439,821.611z"/>
		<path style="fill:#FFFFFF;" d="M359.861,811.904l10.84-11.914h2.344l-8.359,9.063l9.082,12.168h-2.324l-8.066-10.723l-3.477,3.164
			v7.559h-1.934V790.83h1.934v15.234l-0.137,5.84H359.861z"/>
		<path style="fill:#FFFFFF;" d="M409.88,806.67c0,4.793-1.257,8.416-3.77,10.869c-2.513,2.455-6.205,3.682-11.074,3.682h-6.836
			v-28.555h7.715c4.557,0,8.024,1.191,10.4,3.574C408.692,798.623,409.88,802.1,409.88,806.67z M407.712,806.748
			c0-4.088-1.039-7.164-3.115-9.229c-2.077-2.063-5.127-3.096-9.15-3.096h-5.254v25.039h4.727
			C403.448,819.463,407.712,815.225,407.712,806.748z"/>
		<path style="fill:#FFFFFF;" d="M433.513,810.576c0,3.465-0.84,6.17-2.52,8.115c-1.68,1.947-3.998,2.92-6.953,2.92
			c-1.862,0-3.503-0.449-4.922-1.348c-1.419-0.898-2.507-2.188-3.262-3.867c-0.755-1.68-1.133-3.619-1.133-5.82
			c0-3.463,0.84-6.162,2.52-8.096c1.68-1.934,3.984-2.9,6.914-2.9c2.917,0,5.205,0.981,6.865,2.94
			C432.683,804.481,433.513,807.166,433.513,810.576z M416.755,810.576c0,2.918,0.641,5.193,1.924,6.826
			c1.282,1.635,3.096,2.451,5.44,2.451c2.344,0,4.157-0.816,5.439-2.451c1.282-1.633,1.924-3.908,1.924-6.826
			c0-2.93-0.648-5.201-1.943-6.816c-1.296-1.613-3.115-2.422-5.459-2.422c-2.344,0-4.15,0.805-5.42,2.412
			C417.39,805.359,416.755,807.635,416.755,810.576z"/>
		<path style="fill:#FFFFFF;" d="M447.869,821.611c-3.034,0-5.41-0.957-7.129-2.871c-1.719-1.914-2.578-4.582-2.578-8.008
			c0-3.516,0.892-6.252,2.676-8.213c1.784-1.959,4.225-2.94,7.324-2.94c1.836,0,3.594,0.32,5.273,0.957l-0.527,1.719
			c-1.836-0.611-3.431-0.918-4.785-0.918c-2.604,0-4.577,0.805-5.918,2.412c-1.341,1.609-2.012,3.924-2.012,6.943
			c0,2.865,0.67,5.107,2.012,6.728c1.341,1.621,3.216,2.432,5.625,2.432c1.927,0,3.717-0.344,5.371-1.035v1.797
			C451.846,821.279,450.069,821.611,447.869,821.611z"/>
		<path style="fill:#FFFFFF;" d="M460.076,799.99v13.75c0,2.137,0.449,3.689,1.348,4.658c0.898,0.971,2.292,1.455,4.18,1.455
			c2.526,0,4.385-0.637,5.576-1.914c1.191-1.275,1.787-3.352,1.787-6.231V799.99h1.914v21.23h-1.641l-0.352-2.93h-0.117
			c-1.38,2.215-3.835,3.32-7.363,3.32c-4.831,0-7.246-2.584-7.246-7.754V799.99H460.076z"/>
		<path style="fill:#FFFFFF;" d="M508.513,821.221v-13.926c0-2.07-0.404-3.58-1.211-4.531c-0.808-0.949-2.044-1.426-3.711-1.426
			c-2.175,0-3.783,0.6-4.824,1.797c-1.042,1.199-1.563,3.08-1.563,5.644v12.441h-1.973v-14.512c0-3.58-1.641-5.371-4.922-5.371
			c-2.227,0-3.848,0.648-4.863,1.943c-1.016,1.297-1.523,3.369-1.523,6.221v11.719h-1.934v-21.23h1.602l0.41,2.91h0.117
			c0.586-1.055,1.419-1.871,2.5-2.451c1.081-0.578,2.272-0.869,3.574-0.869c3.346,0,5.495,1.258,6.445,3.77h0.078
			c0.69-1.211,1.618-2.141,2.783-2.793c1.165-0.65,2.49-0.977,3.975-0.977c2.317,0,4.056,0.619,5.215,1.856
			c1.159,1.238,1.738,3.203,1.738,5.898v13.887H508.513z"/>
		<path style="fill:#FFFFFF;" d="M525.877,821.611c-3.086,0-5.492-0.949-7.217-2.852c-1.726-1.9-2.588-4.563-2.588-7.988
			c0-3.385,0.833-6.096,2.5-8.135c1.667-2.037,3.913-3.057,6.738-3.057c2.5,0,4.473,0.873,5.918,2.617
			c1.445,1.746,2.168,4.115,2.168,7.109v1.563h-15.293c0.026,2.918,0.706,5.144,2.041,6.68c1.334,1.537,3.245,2.305,5.732,2.305
			c1.211,0,2.275-0.084,3.193-0.254c0.918-0.168,2.08-0.533,3.486-1.094v1.758c-1.198,0.522-2.305,0.877-3.32,1.065
			C528.22,821.518,527.1,821.611,525.877,821.611z M525.31,801.299c-2.044,0-3.685,0.674-4.922,2.021
			c-1.237,1.348-1.96,3.291-2.168,5.83h13.125c0-2.461-0.534-4.385-1.602-5.771C528.676,801.992,527.198,801.299,525.31,801.299z"/>
		<path style="fill:#FFFFFF;" d="M554.06,821.221v-13.77c0-2.135-0.449-3.688-1.348-4.658c-0.898-0.969-2.292-1.455-4.18-1.455
			c-2.539,0-4.398,0.643-5.576,1.924c-1.179,1.283-1.768,3.363-1.768,6.24v11.719h-1.934v-21.23h1.641l0.371,2.91h0.117
			c1.38-2.213,3.835-3.32,7.363-3.32c4.817,0,7.227,2.586,7.227,7.754v13.887H554.06z"/>
		<path style="fill:#FFFFFF;" d="M568.455,819.893c1.224,0,2.292-0.103,3.203-0.313v1.563c-0.938,0.313-2.018,0.469-3.242,0.469
			c-1.875,0-3.259-0.5-4.15-1.504c-0.892-1.002-1.338-2.578-1.338-4.727V801.67h-3.145v-1.133l3.145-0.879l0.977-4.805h0.996v5.137
			h6.23v1.68h-6.23v13.438c0,1.629,0.286,2.832,0.859,3.613C566.332,819.502,567.231,819.893,568.455,819.893z"/>
		<path style="fill:#FFFFFF;" d="M589.412,815.693c0,1.902-0.723,3.363-2.168,4.385c-1.445,1.023-3.496,1.533-6.152,1.533
			c-2.839,0-5.091-0.436-6.758-1.309v-2.09c2.135,1.068,4.388,1.602,6.758,1.602c2.096,0,3.688-0.348,4.775-1.045
			c1.087-0.695,1.631-1.623,1.631-2.783c0-1.066-0.433-1.965-1.299-2.695c-0.866-0.729-2.289-1.445-4.268-2.148
			c-2.123-0.768-3.613-1.428-4.473-1.982c-0.859-0.553-1.507-1.178-1.943-1.875c-0.437-0.695-0.654-1.545-0.654-2.549
			c0-1.588,0.667-2.844,2.002-3.77c1.335-0.924,3.2-1.387,5.596-1.387c2.292,0,4.466,0.43,6.523,1.289l-0.723,1.758
			c-2.083-0.859-4.017-1.289-5.801-1.289c-1.732,0-3.105,0.287-4.121,0.859c-1.016,0.574-1.523,1.367-1.523,2.383
			c0,1.107,0.394,1.992,1.182,2.656c0.788,0.664,2.327,1.406,4.619,2.227c1.914,0.691,3.307,1.313,4.18,1.865
			c0.872,0.555,1.526,1.182,1.963,1.885C589.193,813.916,589.412,814.744,589.412,815.693z"/>
	</g>
</g>
</svg>
